<svg width="28" height="19" viewBox="0 0 28 19" fill="none" xmlns="http://www.w3.org/2000/svg">
<path fill-rule="evenodd" clip-rule="evenodd" d="M1.82213 2.87411L9.64025 9.44051L1.82213 16.0069V2.87411ZM24.8045 1.93019L14.052 10.959C14.0315 10.9795 14.011 10.9795 13.9905 10.959L3.23801 1.93019H24.8045ZM26.0768 16.0069L18.2586 9.44051L26.0768 2.87411V16.0069ZM17.0685 10.446L25.3791 17.4023H2.54033L10.8509 10.446L13.539 12.7032C13.7648 12.8879 14.1546 12.9084 14.3804 12.7032L17.0685 10.446ZM1.49381 0.514313H26.4256C27.0207 0.514313 27.5132 1.00679 27.5132 1.60187V17.7511C27.5132 18.3462 27.0207 18.8387 26.4256 18.8387H1.49381C0.89873 18.8181 0.40625 18.3462 0.40625 17.7511V1.60187C0.40625 1.00679 0.89873 0.514313 1.49381 0.514313Z" fill="#FFC328"/>
</svg>
